# xmcd
#
# Track frame offsets:
#	180
#	14081
#	40634
#	60269
#	77031
#	101575
#	115231
#	130291
#	148986
#	160404
#	182543
#	199210
#
# Disc length: 2998 seconds
#
# Revision: 0
# Processed by: cddbd v1.5.1PL2 Copyright (c) Steve Scherf et al.
# Submitted via: dBpowerAMP V4.0
#
DISCID=a40bb40c
DTITLE=Frank Doubleday - Doctor Doubleday's Remedy For The Blues
DYEAR=1997
DGENRE=Blues
TTITLE0=St James Street Blues
TTITLE1=Georgia Chain Gang
TTITLE2=I'm A Lover
TTITLE3=Baby Fry Blues
TTITLE4=People Are People
TTITLE5=Crosscut Saw
TTITLE6=Why Was I Born
TTITLE7=Chill Me Baby
TTITLE8=Chips Flying Everywhere
TTITLE9=Maxwell Street Medley
TTITLE10=Hi-Heel Sneakers
TTITLE11=The Ghetto
EXTD=
EXTT0=
EXTT1=
EXTT2=
EXTT3=
EXTT4=
EXTT5=
EXTT6=
EXTT7=
EXTT8=
EXTT9=
EXTT10=
EXTT11=
PLAYORDER=
